<svg id="Layer_1" enable-background="new 0 0 256 256" height="512" viewBox="0 0 256 256" width="512" xmlns="http://www.w3.org/2000/svg"><g><path d="m15.74 142.67v53.92c0 6.17 5 11.17 11.17 11.17s11.17-5 11.17-11.17v-53.92z" fill="#3193f3"/><path d="m53.807 153.897h-22.473c-14.303 0-25.897-11.594-25.897-25.897 0-14.303 11.594-25.897 25.897-25.897h22.474v51.794z" fill="#f9d335"/><path d="m154.502 71.765v112.471c0 4.178-4.782 6.592-8.112 4.068-29.302-22.212-45.357-34.406-82.515-34.406h-10.064v-51.794h10.064c37.158 0 53.212-12.195 82.515-34.406 3.33-2.525 8.112-.111 8.112 4.067z" fill="#5fcdff"/><path d="m46.33 153.9h-15c-14.3 0-25.89-11.6-25.89-25.9 0-7.15 2.9-13.62 7.58-18.31 4.69-4.69 11.16-7.59 18.31-7.59h15c-7.15 0-13.62 2.9-18.31 7.59-4.68 4.69-7.58 11.16-7.58 18.31 0 14.3 11.59 25.9 25.89 25.9z" fill="#f9e27d"/><path d="m154.5 71.76v112.48c0 4.17-4.78 6.59-8.11 4.06-2.38-1.8-4.67-3.54-6.89-5.2v-110.2c2.22-1.66 4.51-3.4 6.89-5.2 3.33-2.53 8.11-.11 8.11 4.06z" fill="#30b6ff"/><path d="m170.63 101.42h79.93v53.16h-79.93z" fill="#f9d335"/><path d="m170.63 101.42h15v53.16h-15z" fill="#f9e27d"/><path d="m250.56 101.42-39.96 26.58-39.97-26.58z" fill="#f2c300"/><g fill="#5f266d"><path d="m143.894 64.57c-29.455 22.327-44.239 33.533-80.018 33.533-.318 0-10.384 0-10.067 0-2.052 0-18.233 0-22.476 0-27.579 0-40.399 34.35-19.593 52.45v46.037c0 8.365 6.805 15.17 15.17 15.17s15.17-6.805 15.17-15.17v-38.693c50.523 0 56.363-.832 101.894 33.594 5.958 4.516 14.528.228 14.528-7.255v-112.471c0-7.389-8.453-11.849-14.608-7.195zm-109.814 132.02c0 3.954-3.216 7.17-7.17 7.17s-7.17-3.216-7.17-7.17v-41.033c6.108 2.579 10.874 2.34 14.34 2.34zm15.727-46.693h-18.474c-12.074 0-21.897-9.823-21.897-21.897s9.823-21.897 21.897-21.897h18.474zm100.695 34.339c0 .83-.917 1.47-1.776.819-35.471-26.887-48.05-35.158-90.915-35.158v-43.794c43.027 0 55.494-8.324 90.996-35.219.699-.529 1.695 0 1.695.88z"/><path d="m250.573 97.42c-.003 0-.006-.001-.01-.001-.313 0-79.946.001-79.946.001-1.256.004-2.638.665-3.409 1.949-1.125 1.871-.582 1.665-.582 55.213 0 2.209 1.791 4 4 4h79.937c2.209 0 4-1.791 4-4v-53.133c0-.003 0-.006 0-.009v-.021c0-2.207-1.793-3.992-3.99-3.999zm-13.247 7.999-26.731 17.778-26.731-17.778zm-62.699 3.464 15.299 10.175-15.299 23.537zm4.351 41.699 17.61-27.093 11.791 7.842c1.343.893 3.088.893 4.431 0l11.791-7.842 17.61 27.093zm67.585-7.987-15.299-23.537 15.299-10.175z"/><path d="m172.824 68.898 73.333-48.208c1.846-1.213 2.359-3.693 1.145-5.54-1.213-1.846-3.694-2.36-5.54-1.145l-73.332 48.209c-1.846 1.213-2.359 3.693-1.145 5.54 1.212 1.845 3.693 2.358 5.539 1.144z"/><path d="m232.315 50.803-63.333 28.563c-2.014.908-2.91 3.277-2.002 5.291.909 2.015 3.279 2.91 5.291 2.002l63.333-28.563c2.014-.908 2.91-3.277 2.002-5.291s-3.276-2.91-5.291-2.002z"/><path d="m246.157 235.311-73.333-48.208c-1.847-1.214-4.327-.701-5.54 1.145-1.214 1.846-.701 4.326 1.145 5.54l73.333 48.208c1.846 1.214 4.327.701 5.54-1.145 1.214-1.847.701-4.327-1.145-5.54z"/><path d="m168.982 176.634c68.562 30.922 63.73 28.918 64.975 28.918 4.291 0 5.562-5.882 1.647-7.647l-63.333-28.563c-2.013-.908-4.383-.012-5.291 2.002s-.011 4.382 2.002 5.29z"/><path d="m125.353 98.42c-2.394 2.113-5.236 4.098-8.448 5.899-1.927 1.08-2.613 3.518-1.533 5.445.733 1.308 2.092 2.044 3.492 2.044.663 0 1.334-.165 1.953-.512 3.706-2.077 7.013-4.392 9.831-6.879 1.656-1.462 1.813-3.99.351-5.646-1.463-1.657-3.99-1.813-5.646-.351z"/><path d="m103.845 110.008c-10.899 3.672-20.49 4.689-20.585 4.7-2.197.225-3.796 2.187-3.572 4.384.21 2.06 1.948 3.595 3.975 3.595.135 0 .272-.007.41-.021.425-.043 10.537-1.104 22.328-5.077 2.093-.705 3.219-2.974 2.513-5.068-.706-2.093-2.974-3.218-5.069-2.513z"/></g></g></svg>